<svg id="Laag_1" data-name="Laag 1" xmlns="http://www.w3.org/2000/svg" viewBox="0 0 96 97"><defs><style>.cls-1{fill:#333;stroke:#333;opacity:0.5;}.cls-1,.cls-2,.cls-3,.cls-4{stroke-miterlimit:10;}.cls-2{fill:#a67c52;stroke:#8c6239;}.cls-3{fill:#c7b299;stroke:#998675;}.cls-4{fill:#fff;stroke:#f2f2f2;}</style></defs><title>restart_button</title><rect class="cls-1" x="0.5" y="0.5" width="95" height="96"/><rect class="cls-2" x="0.5" y="0.5" width="92.01" height="92.01"/><rect class="cls-3" x="10.5" y="10.5" width="71.99" height="71.99"/><rect class="cls-4" x="32.89" y="24.5" width="9.11" height="25.05"/><rect class="cls-4" x="27.19" y="29.05" width="5.07" height="15.95"/><rect class="cls-1" x="32.89" y="50.12" width="9.11" height="2.28"/><rect class="cls-4" x="21.5" y="34.74" width="5.12" height="4.55"/><rect class="cls-1" x="27.19" y="45.57" width="4.31" height="2.93"/><rect class="cls-1" x="21.5" y="39.87" width="5" height="2.63"/><rect class="cls-4" x="42.5" y="34.74" width="10" height="4.55"/><rect class="cls-4" x="53.5" y="39.74" width="6" height="4.55"/><rect class="cls-4" x="60.5" y="44.74" width="6" height="13.76"/><rect class="cls-4" x="53.5" y="58.74" width="6" height="4.55"/><rect class="cls-4" x="42.5" y="63.74" width="10" height="4.55"/><rect class="cls-1" x="42.89" y="40.12" width="9.11" height="2.28"/><rect class="cls-1" x="42.5" y="68.5" width="10" height="3"/><rect class="cls-1" x="53.5" y="64.5" width="6" height="3"/><rect class="cls-1" x="53.5" y="45.5" width="6" height="3"/><rect class="cls-1" x="60.5" y="59.5" width="6" height="3"/></svg>